<svg xmlns="http://www.w3.org/2000/svg" width="15.926" height="16.988" viewBox="0 0 15.926 16.988">
  <path id="ea1e" d="M14.69,0a1.171,1.171,0,0,1,.481.1,1.264,1.264,0,0,1,.655.655,1.171,1.171,0,0,1,.1.481V15.752a1.171,1.171,0,0,1-.1.481,1.264,1.264,0,0,1-.655.655,1.171,1.171,0,0,1-.481.1H1.236A1.263,1.263,0,0,1,.755,16.9a1.111,1.111,0,0,1-.39-.265,1.393,1.393,0,0,1-.265-.4,1.171,1.171,0,0,1-.1-.481V9.73a1.263,1.263,0,0,1,.091-.481,1.111,1.111,0,0,1,.265-.39,1.393,1.393,0,0,1,.4-.265,1.171,1.171,0,0,1,.481-.1H4.247V5.483A1.263,1.263,0,0,1,4.338,5a1.111,1.111,0,0,1,.265-.39A1.393,1.393,0,0,1,5,4.346a1.171,1.171,0,0,1,.481-.1H8.494V1.236A1.263,1.263,0,0,1,8.585.755a1.111,1.111,0,0,1,.265-.39A1.393,1.393,0,0,1,9.249.1,1.171,1.171,0,0,1,9.73,0ZM6.37,15.926V9.738a.169.169,0,0,0-.05-.124.211.211,0,0,0-.133-.058H1.236a.159.159,0,0,0-.116.05.2.2,0,0,0-.058.124v6.022a.159.159,0,0,0,.05.116.2.2,0,0,0,.124.058Zm4.247,0V5.483a.159.159,0,0,0-.05-.116.2.2,0,0,0-.124-.058H5.483a.159.159,0,0,0-.116.05.2.2,0,0,0-.058.124V8.494h.879a1.171,1.171,0,0,1,.481.1,1.393,1.393,0,0,1,.4.265,1.111,1.111,0,0,1,.265.39,1.4,1.4,0,0,1,.1.489v6.188Zm4.247-.174V1.236a.159.159,0,0,0-.05-.116.2.2,0,0,0-.124-.058H9.73a.159.159,0,0,0-.116.05.2.2,0,0,0-.058.124V4.247h.888a1.171,1.171,0,0,1,.481.1A1.264,1.264,0,0,1,11.58,5a1.171,1.171,0,0,1,.1.481V15.926H14.69a.159.159,0,0,0,.116-.05A.2.2,0,0,0,14.864,15.752Z" transform="translate(0 0)"/>
</svg>
