<svg xmlns="http://www.w3.org/2000/svg" xmlns:xlink="http://www.w3.org/1999/xlink" width="40" height="40" viewBox="0 0 40 40">
  <defs>
    <clipPath id="clip-Load">
      <rect width="40" height="40"/>
    </clipPath>
  </defs>
  <g id="Load" clip-path="url(#clip-Load)">
    <rect width="40" height="40" fill="#fff"/>
    <g id="Group_340" data-name="Group 340" transform="translate(-3.76 -3.77)">
      <path id="Path_488" data-name="Path 488" d="M328.811,3.328a.732.732,0,0,1-.732-.733V-.331a.732.732,0,0,1,.2-.542.732.732,0,0,1,.531-.228.732.732,0,0,1,.531.228.732.732,0,0,1,.2.542V2.6a.731.731,0,0,1-.731.733Z" transform="translate(-305.051 13.632)"/>
      <path id="Path_489" data-name="Path 489" d="M201.264,38.43a.735.735,0,0,1-.635-.365l-1.463-2.542a.731.731,0,0,1,1.266-.731l1.465,2.535a.733.733,0,0,1-.268,1.006.749.749,0,0,1-.365.1Z" transform="translate(-181.195 -20.707)"/>
      <path id="Path_490" data-name="Path 490" d="M106.831,131.458a.737.737,0,0,1-.365-.1l-2.535-1.465a.731.731,0,1,1,.725-1.266l2.537,1.463a.732.732,0,0,1-.375,1.366Z" transform="translate(-89.871 -110.629)"/>
      <path id="Path_491" data-name="Path 491" d="M72.593,259.542H69.667a.732.732,0,1,1,0-1.463h2.926a.732.732,0,1,1,0,1.463Z" transform="translate(-56.397 -235.021)"/>
      <path id="Path_492" data-name="Path 492" d="M105.369,346.63a.733.733,0,0,1-.365-1.366l2.535-1.463a.732.732,0,0,1,.732,1.266l-2.542,1.456a.731.731,0,0,1-.36.107Z" transform="translate(-90.943 -316.938)"/>
      <path id="Path_493" data-name="Path 493" d="M199.9,410.491a.731.731,0,0,1-.643-1.09l1.463-2.535a.733.733,0,0,1,1.268.733l-1.465,2.527A.729.729,0,0,1,199.9,410.491Z" transform="translate(-181.286 -376.641)"/>
      <path id="Path_494" data-name="Path 494" d="M328.811,432.058a.732.732,0,0,1-.732-.732V428.4a.732.732,0,1,1,1.463,0v2.926a.731.731,0,0,1-.731.732Z" transform="translate(-305.051 -397.05)"/>
      <path id="Path_495" data-name="Path 495" d="M415.621,409.888a.734.734,0,0,1-.635-.365l-1.463-2.535a.731.731,0,0,1,1.266-.732l1.465,2.542a.732.732,0,0,1-.268.993.749.749,0,0,1-.365.1Z" transform="translate(-386.704 -376.038)"/>
      <path id="Path_496" data-name="Path 496" d="M479.159,346.359a.749.749,0,0,1-.375-.1l-2.525-1.474a.731.731,0,0,1,.732-1.266l2.535,1.463h0a.733.733,0,0,1-.375,1.366Z" transform="translate(-446.065 -316.668)"/>
      <path id="Path_497" data-name="Path 497" d="M501.329,259.542H498.4a.732.732,0,1,1,0-1.463h2.926a.732.732,0,1,1,0,1.463Z" transform="translate(-467.078 -235.021)"/>
    </g>
  </g>
</svg>
