<svg xmlns="http://www.w3.org/2000/svg" width="11.113" height="11.113" viewBox="0 0 11.113 11.113">
  <path id="Path_545" data-name="Path 545" d="M10.613-6.693a5.247,5.247,0,0,1-.189,1.415A5.318,5.318,0,0,1,9.89-4.012a5.3,5.3,0,0,1-.829,1.073,5.3,5.3,0,0,1-1.073.829,5.318,5.318,0,0,1-1.267.534,5.247,5.247,0,0,1-1.415.189,5.247,5.247,0,0,1-1.415-.189,5.367,5.367,0,0,1-1.27-.534,5.256,5.256,0,0,1-1.073-.827A5.256,5.256,0,0,1,.723-4.009a5.367,5.367,0,0,1-.534-1.27A5.247,5.247,0,0,1,0-6.693,5.247,5.247,0,0,1,.189-8.108,5.318,5.318,0,0,1,.723-9.375a5.3,5.3,0,0,1,.829-1.073,5.3,5.3,0,0,1,1.073-.829,5.318,5.318,0,0,1,1.267-.534A5.247,5.247,0,0,1,5.307-12a5.18,5.18,0,0,1,1.125.122,5.458,5.458,0,0,1,1.057.35,5.136,5.136,0,0,1,.961.565,5.719,5.719,0,0,1,.837.762v-1.467a.319.319,0,0,1,.1-.233.319.319,0,0,1,.233-.1.319.319,0,0,1,.233.1.319.319,0,0,1,.1.233q0,.627,0,1.249t0,1.249A1.441,1.441,0,0,1,9.945-9a.453.453,0,0,1-.047.155.3.3,0,0,1-.1.114.317.317,0,0,1-.176.044H6.965a.319.319,0,0,1-.233-.1.319.319,0,0,1-.1-.233.319.319,0,0,1,.1-.233.319.319,0,0,1,.233-.1H9.116a4.6,4.6,0,0,0-.749-.834,4.682,4.682,0,0,0-.915-.624A4.751,4.751,0,0,0,6.416-11.2a4.515,4.515,0,0,0-1.109-.137,4.571,4.571,0,0,0-1.236.166,4.644,4.644,0,0,0-1.109.469,4.664,4.664,0,0,0-.938.726,4.664,4.664,0,0,0-.726.938A4.644,4.644,0,0,0,.829-7.929,4.57,4.57,0,0,0,.663-6.693,4.57,4.57,0,0,0,.829-5.457,4.708,4.708,0,0,0,1.3-4.348a4.6,4.6,0,0,0,.726.941,4.6,4.6,0,0,0,.941.726,4.708,4.708,0,0,0,1.109.466,4.57,4.57,0,0,0,1.236.166,4.662,4.662,0,0,0,1.215-.158,4.562,4.562,0,0,0,1.1-.456,4.621,4.621,0,0,0,.948-.728,4.742,4.742,0,0,0,.749-.969A4.526,4.526,0,0,0,9.8-5.486,4.682,4.682,0,0,0,9.95-6.693a.319.319,0,0,1,.1-.233.319.319,0,0,1,.233-.1.319.319,0,0,1,.233.1A.319.319,0,0,1,10.613-6.693Z" transform="translate(0.25 12.25)" stroke="#000" stroke-width="0.5"/>
</svg>
