<svg xmlns="http://www.w3.org/2000/svg" xmlns:xlink="http://www.w3.org/1999/xlink" width="40" height="40" viewBox="0 0 40 40">
  <defs>
    <clipPath id="clip-Report_Link">
      <rect width="40" height="40"/>
    </clipPath>
  </defs>
  <g id="Report_Link" data-name="Report Link" clip-path="url(#clip-Report_Link)">
    <rect width="40" height="40" fill="none"/>
    <path id="ic_fluent_document_link_24_regular" d="M18.065,19.552a.488.488,0,0,1-.488.488H13.453A4.862,4.862,0,0,1,12.7,21.5h4.875a1.95,1.95,0,0,0,1.95-1.95V9.633a1.95,1.95,0,0,0-.571-1.379L13.272,2.571a.479.479,0,0,0-.048-.039L13.189,2.5a2.02,2.02,0,0,0-.214-.176.636.636,0,0,0-.078-.043l-.047-.023L12.8,2.233a1.505,1.505,0,0,0-.162-.085,1.928,1.928,0,0,0-.608-.135.546.546,0,0,1-.058-.007A.59.59,0,0,0,11.894,2H5.876a1.95,1.95,0,0,0-1.95,1.95V13.7H5.388V3.95a.488.488,0,0,1,.488-.488h5.851V7.851a1.95,1.95,0,0,0,1.95,1.95h4.388Zm-4.876-15,3.782,3.783H13.677a.488.488,0,0,1-.488-.488V4.556ZM5.632,15.408a.731.731,0,0,0-.731-.731l-.2,0a3.9,3.9,0,0,0,.2,7.8l.1-.007a.731.731,0,0,0-.1-1.456l-.16,0a2.438,2.438,0,0,1,.16-4.871l.1-.007A.731.731,0,0,0,5.632,15.408Zm7.07,3.169a3.9,3.9,0,0,0-3.9-3.9l-.1.007a.731.731,0,0,0,.1,1.456l.16,0a2.438,2.438,0,0,1-.16,4.871l-.1.007a.731.731,0,0,0,.1,1.456l.2,0A3.9,3.9,0,0,0,12.7,18.577Zm-4.144-.731H5.144l-.1.007a.731.731,0,0,0,.1,1.456H8.557l.1-.007a.731.731,0,0,0-.1-1.456Z" transform="translate(9.736 7.761)" fill="#212121"/>
  </g>
</svg>
