<svg xmlns="http://www.w3.org/2000/svg" xmlns:xlink="http://www.w3.org/1999/xlink" width="116.387" height="168.093" viewBox="0 0 116.387 168.093">
  <defs>
    <clipPath id="clip-path">
      <rect id="Rectangle_205" data-name="Rectangle 205" width="116.387" height="168.093" fill="none"/>
    </clipPath>
    <clipPath id="clip-path-2">
      <rect id="Rectangle_192" data-name="Rectangle 192" width="116.106" height="164.916" fill="none"/>
    </clipPath>
  </defs>
  <g id="Group_350" data-name="Group 350" transform="translate(-625 -350.699)">
    <g id="Group_346" data-name="Group 346" transform="translate(625 350.699)" clip-path="url(#clip-path)">
      <g id="Group_345" data-name="Group 345" transform="translate(0.28 3.177)" opacity="0.1" style="mix-blend-mode: multiply;isolation: isolate">
        <g id="Group_344" data-name="Group 344">
          <g id="Group_343" data-name="Group 343" clip-path="url(#clip-path-2)">
            <path id="Path_525" data-name="Path 525" d="M109.346,170.828H7.8a7.283,7.283,0,0,1-7.283-7.283V13.194A7.283,7.283,0,0,1,7.8,5.912H109.346a7.282,7.282,0,0,1,7.283,7.282V163.545a7.282,7.282,0,0,1-7.283,7.283" transform="translate(-0.522 -5.912)"/>
          </g>
        </g>
      </g>
      <path id="Path_526" data-name="Path 526" d="M108.824,164.916H7.283A7.283,7.283,0,0,1,0,157.633V7.283A7.283,7.283,0,0,1,7.283,0H108.824a7.282,7.282,0,0,1,7.283,7.283V157.633a7.282,7.282,0,0,1-7.283,7.283" fill="#eda6a6"/>
      <rect id="Rectangle_193" data-name="Rectangle 193" width="102.661" height="153.004" transform="translate(6.723 5.956)" fill="#fff"/>
      <rect id="Rectangle_194" data-name="Rectangle 194" width="62.337" height="5.159" transform="translate(37.107 33.482)" fill="#b3b3b3"/>
      <rect id="Rectangle_208" data-name="Rectangle 208" width="82.912" height="5.159" transform="translate(16.686 19.651)" fill="#eda6a6"/>
      <rect id="Rectangle_195" data-name="Rectangle 195" width="62.337" height="5.159" transform="translate(37.107 42.859)" fill="#d6d6d6"/>
      <rect id="Rectangle_196" data-name="Rectangle 196" width="82.758" height="5.159" transform="translate(16.686 52.237)" fill="#d6d6d6"/>
      <path id="Path_527" data-name="Path 527" d="M69.139,11.084a2.654,2.654,0,0,0,2.651,2.6h37.055a2.654,2.654,0,0,0,2.652-2.6Z" transform="translate(-31.985 -5.128)" fill="#d6d6d6"/>
      <path id="Path_528" data-name="Path 528" d="M44.131,74.155H33.737V64.993H44.131Zm2.687-11.849H31.05V76.842H46.818Z" transform="translate(-14.364 -28.824)" fill="#d6d6d6"/>
      <rect id="Rectangle_197" data-name="Rectangle 197" width="62.337" height="5.159" transform="translate(37.107 66.067)" fill="#b3b3b3"/>
      <rect id="Rectangle_198" data-name="Rectangle 198" width="62.337" height="5.159" transform="translate(37.107 75.445)" fill="#d6d6d6"/>
      <rect id="Rectangle_199" data-name="Rectangle 199" width="82.758" height="5.159" transform="translate(16.686 84.822)" fill="#d6d6d6"/>
      <rect id="Rectangle_200" data-name="Rectangle 200" width="36.811" height="5.159" transform="translate(16.686 125.534)" fill="#d6d6d6"/>
      <rect id="Rectangle_201" data-name="Rectangle 201" width="20.152" height="5.159" transform="translate(16.686 134.585)" fill="#d6d6d6"/>
      <rect id="Rectangle_202" data-name="Rectangle 202" width="36.811" height="5.159" transform="translate(62.787 125.534)" fill="#d6d6d6"/>
      <rect id="Rectangle_203" data-name="Rectangle 203" width="20.152" height="5.159" transform="translate(62.787 134.585)" fill="#d6d6d6"/>
      <path id="Path_529" data-name="Path 529" d="M44.131,134.792H33.737v-9.162H44.131Zm2.687-11.85H31.05v14.536H46.818Z" transform="translate(-14.364 -56.875)" fill="#d6d6d6"/>
      <rect id="Rectangle_204" data-name="Rectangle 204" width="82.758" height="5.073" transform="translate(16.686 98.653)" fill="#b3b3b3"/>
      <path id="Path_530" data-name="Path 530" d="M65.286,211.573H33.737v-9.162H65.286Zm2.687-11.849H31.05V214.26H67.973Z" transform="translate(-14.364 -92.395)" fill="#d6d6d6"/>
      <path id="Path_531" data-name="Path 531" d="M150.577,211.573H119.028v-9.162h31.549Zm2.687-11.849H116.341V214.26h36.923Z" transform="translate(-53.821 -92.395)" fill="#d6d6d6"/>
      <path id="Path_532" data-name="Path 532" d="M50.784,64.259l-9.295,9.295-4.848-4.848" transform="translate(-16.951 -29.727)" fill="none" stroke="#eda6a6" stroke-linecap="round" stroke-miterlimit="10" stroke-width="4"/>
    </g>
    <g id="Group_349" data-name="Group 349" transform="translate(625 350.699)">
      <g id="Group_348" data-name="Group 348" clip-path="url(#clip-path)">
        <path id="Path_533" data-name="Path 533" d="M50.784,126.9l-9.295,9.295-4.848-4.848" transform="translate(-16.951 -58.703)" fill="none" stroke="#eda6a6" stroke-linecap="round" stroke-miterlimit="10" stroke-width="4"/>
      </g>
    </g>
    <rect id="Rectangle_207" data-name="Rectangle 207" width="116.387" height="168.093" transform="translate(625 350.699)" fill="none"/>
  </g>
</svg>
