<svg xmlns="http://www.w3.org/2000/svg" width="14" height="12.25" viewBox="0 0 14 12.25">
  <g id="Group_429" data-name="Group 429" transform="translate(-8602 -15841.029)">
    <g id="Group_428" data-name="Group 428">
      <path id="Path_546" data-name="Path 546" d="M-.875-10.062a3.809,3.809,0,0,1,.311-1.531A4,4,0,0,1,.28-12.845a4,4,0,0,1,1.251-.844A3.809,3.809,0,0,1,3.063-14a3.862,3.862,0,0,1,1.042.14,3.949,3.949,0,0,1,.94.4,3.954,3.954,0,0,1,.8.619,3.954,3.954,0,0,1,.619.8,3.949,3.949,0,0,1,.4.94A3.862,3.862,0,0,1,7-10.062a3.809,3.809,0,0,1-.311,1.531A4,4,0,0,1,5.845-7.28a4,4,0,0,1-1.251.844,3.809,3.809,0,0,1-1.531.311,3.863,3.863,0,0,1-1.538-.308A3.951,3.951,0,0,1,.273-7.273,3.951,3.951,0,0,1-.567-8.524,3.863,3.863,0,0,1-.875-10.062ZM-5.284-1.75a1.572,1.572,0,0,1-.653-.14,1.828,1.828,0,0,1-.547-.376,1.828,1.828,0,0,1-.376-.547A1.572,1.572,0,0,1-7-3.466v-7.068a1.572,1.572,0,0,1,.14-.653,1.828,1.828,0,0,1,.376-.547,1.828,1.828,0,0,1,.547-.376,1.572,1.572,0,0,1,.653-.14H-1.47a4.8,4.8,0,0,0-.328.875H-5.25a.848.848,0,0,0-.342.068.889.889,0,0,0-.277.188.889.889,0,0,0-.188.277.848.848,0,0,0-.068.342v7a.872.872,0,0,0,.068.345.867.867,0,0,0,.185.277.867.867,0,0,0,.277.185.872.872,0,0,0,.345.068H5.25a.848.848,0,0,0,.342-.068.889.889,0,0,0,.277-.188.889.889,0,0,0,.188-.277A.848.848,0,0,0,6.125-3.5V-6.07a4.335,4.335,0,0,0,.465-.4A5.555,5.555,0,0,0,7-6.932v3.466a1.572,1.572,0,0,1-.14.653,1.828,1.828,0,0,1-.376.547,1.828,1.828,0,0,1-.547.376,1.572,1.572,0,0,1-.653.14ZM2.188-7.82a.475.475,0,0,0,.349-.144L5.6-11.026a.475.475,0,0,0,.144-.349.475.475,0,0,0-.144-.349.475.475,0,0,0-.349-.144.475.475,0,0,0-.349.144L2.188-9.01l-.964-.964a.475.475,0,0,0-.349-.144.475.475,0,0,0-.349.144.475.475,0,0,0-.144.349.475.475,0,0,0,.144.349L1.839-7.964A.475.475,0,0,0,2.188-7.82Z" transform="translate(8609 15855.029)" fill="#fff"/>
      <line id="Line_6" data-name="Line 6" x2="2" transform="translate(8604 15845.5)" fill="none" stroke="#fff" stroke-linecap="round" stroke-width="1"/>
      <line id="Line_7" data-name="Line 7" x2="3" transform="translate(8604 15848)" fill="none" stroke="#fff" stroke-linecap="round" stroke-width="1"/>
      <line id="Line_8" data-name="Line 8" x2="6" transform="translate(8604 15850.5)" fill="none" stroke="#fff" stroke-linecap="round" stroke-width="1"/>
    </g>
  </g>
</svg>
